<svg width="331" height="164" viewBox="0 0 331 164" fill="none" xmlns="http://www.w3.org/2000/svg">
<g filter="url(#filter0_d_65_4)">
<path d="M89.5317 57.6564C59.7248 54.5211 29.342 113.291 72.4214 125.369C110.725 131.49 132.927 62.221 89.5317 57.6564Z" fill="url(#paint0_linear_65_4)" stroke="white" stroke-width="4.40616"/>
<path d="M84.0023 83.1324C76.1535 82.3068 68.153 97.7823 79.4968 100.963C89.5831 102.574 95.4294 84.3344 84.0023 83.1324Z" fill="url(#paint1_linear_65_4)" stroke="white" stroke-width="4.40616"/>
<path d="M133.349 61.6793L117.296 63.8013L112.525 100.282C107.982 135.015 162.71 136.174 166.481 107.339L173.138 56.4407L157.057 58.7811L149.442 105.111C146.209 116.241 127.813 112.502 127.692 104.932L133.349 61.6793Z" fill="url(#paint2_linear_65_4)" stroke="white" stroke-width="4.40616"/>
<path d="M169.132 120.632L177.617 55.7525L211.452 50.1794L209.309 66.5629C199.119 67.0077 193.334 72.6204 191.715 75.3711L186.087 118.405L169.132 120.632Z" fill="url(#paint3_linear_65_4)" stroke="white" stroke-width="4.40616"/>
<path d="M248.04 85.5467C211.339 114.739 217.899 42.4988 250.498 66.7603C259.002 73.0894 268.281 56.4949 261.701 52.4491C192.542 9.92507 184.297 156.356 262.4 98.0773C262.701 97.8523 262.954 97.5055 263.051 97.142C266.465 84.3578 253.479 81.2212 248.04 85.5467Z" fill="url(#paint4_linear_65_4)" stroke="white" stroke-width="4.40616"/>
<path d="M286.212 51.5238L267.5 51.5238L264.692 97.1455C263.378 107.194 277.386 114.137 301.388 112.165C285.009 152.46 256.473 142.433 245.932 128.464C225.329 162.208 305.905 177.856 317.535 112.722L326.306 45.6584L309.873 47.2864L304.359 89.4468C303.245 97.9663 280.498 95.2134 282.733 86.6183L286.212 51.5238Z" fill="url(#paint5_linear_65_4)" stroke="white" stroke-width="4.40616"/>
<path d="M7.99983 61.8297L10.1712 45.2276L95.8402 30.6587L93.526 48.353L55.294 53.5732L45.9801 124.787L28.8352 126.766L37.9778 56.8631L7.99983 61.8297Z" fill="url(#paint6_linear_65_4)" stroke="white" stroke-width="4.40616"/>
</g>
<g filter="url(#filter1_d_65_4)">
<path d="M122.25 17.3974L126.911 22.4814C128.479 24.1913 130.792 25.0115 133.088 24.6789C137.231 24.0786 142.403 23.3469 147.993 22.5834C144.259 18.8319 137.334 11.3761 137.018 9.14559C136.971 8.81339 137.181 8.50516 137.441 8.29298C139.279 6.79257 146.157 7.49459 162.13 20.7118C170.754 19.6106 179.213 18.6153 185.579 18.0415C186.011 18.0026 186.447 18.0025 186.877 18.0572C196.538 19.2852 203.69 26.2683 190.19 28.5219L173.407 31.9946C172.604 32.1609 171.805 32.4035 171.215 32.9739C166.555 37.4812 147.753 61.315 144.615 59.9285C142.939 59.1881 143.963 56.8422 152.842 39.1008C153.999 36.7883 153.878 35.6219 151.306 35.8944C144.037 36.6646 128.325 37.7528 122.578 35.7314C121.405 35.3189 120.749 34.2044 120.431 33.0027C119.166 28.2277 117.767 21.4524 118.143 17.6355C118.365 15.3845 120.722 15.7302 122.25 17.3974Z" fill="#50706B"/>
<path d="M147.993 22.5834C142.403 23.3469 137.231 24.0786 133.088 24.6789C130.792 25.0115 128.479 24.1913 126.911 22.4814L122.25 17.3974C120.722 15.7302 118.365 15.3845 118.143 17.6355C117.767 21.4524 119.166 28.2277 120.431 33.0027C120.749 34.2044 121.405 35.3189 122.578 35.7314C128.325 37.7527 144.037 36.6646 151.306 35.8944C153.878 35.6219 153.999 36.7883 152.842 39.1008C143.963 56.8422 142.939 59.1881 144.615 59.9285C147.753 61.315 166.555 37.4812 171.215 32.9739C171.805 32.4035 172.604 32.1609 173.407 31.9946L190.19 28.5219C203.69 26.2683 196.538 19.2852 186.877 18.0572C186.447 18.0025 186.011 18.0026 185.579 18.0415C179.213 18.6153 170.754 19.6106 162.13 20.7118M147.993 22.5834C144.259 18.8319 137.334 11.3761 137.018 9.14559C136.971 8.81339 137.181 8.50516 137.441 8.29298C139.279 6.79257 146.157 7.49459 162.13 20.7118M147.993 22.5834C152.538 21.9628 157.359 21.3211 162.13 20.7118" stroke="white" stroke-width="1.74803"/>
</g>
<defs>
<filter id="filter0_d_65_4" x="3.66771" y="27.9868" width="326.945" height="135.414" filterUnits="userSpaceOnUse" color-interpolation-filters="sRGB">
<feFlood flood-opacity="0" result="BackgroundImageFix"/>
<feColorMatrix in="SourceAlpha" type="matrix" values="0 0 0 0 0 0 0 0 0 0 0 0 0 0 0 0 0 0 127 0" result="hardAlpha"/>
<feOffset dy="1.76247"/>
<feGaussianBlur stdDeviation="0.881233"/>
<feComposite in2="hardAlpha" operator="out"/>
<feColorMatrix type="matrix" values="0 0 0 0 0 0 0 0 0 0 0 0 0 0 0 0 0 0 0.35 0"/>
<feBlend mode="normal" in2="BackgroundImageFix" result="effect1_dropShadow_65_4"/>
<feBlend mode="normal" in="SourceGraphic" in2="effect1_dropShadow_65_4" result="shape"/>
</filter>
<filter id="filter1_d_65_4" x="115.809" y="6.8584" width="84.103" height="56.7993" filterUnits="userSpaceOnUse" color-interpolation-filters="sRGB">
<feFlood flood-opacity="0" result="BackgroundImageFix"/>
<feColorMatrix in="SourceAlpha" type="matrix" values="0 0 0 0 0 0 0 0 0 0 0 0 0 0 0 0 0 0 127 0" result="hardAlpha"/>
<feOffset dy="1.39842"/>
<feGaussianBlur stdDeviation="0.699212"/>
<feComposite in2="hardAlpha" operator="out"/>
<feColorMatrix type="matrix" values="0 0 0 0 0 0 0 0 0 0 0 0 0 0 0 0 0 0 0.35 0"/>
<feBlend mode="normal" in2="BackgroundImageFix" result="effect1_dropShadow_65_4"/>
<feBlend mode="normal" in="SourceGraphic" in2="effect1_dropShadow_65_4" result="shape"/>
</filter>
<linearGradient id="paint0_linear_65_4" x1="86.6805" y1="57.2708" x2="77.6824" y2="126.07" gradientUnits="userSpaceOnUse">
<stop offset="0.2" stop-color="#7C9B93"/>
<stop offset="0.5" stop-color="#50706B"/>
</linearGradient>
<linearGradient id="paint1_linear_65_4" x1="83.2515" y1="83.0309" x2="80.8821" y2="101.147" gradientUnits="userSpaceOnUse">
<stop offset="0.2" stop-color="#7C9B93"/>
<stop offset="0.5" stop-color="#50706B"/>
</linearGradient>
<linearGradient id="paint2_linear_65_4" x1="146.16" y1="52.9122" x2="136.379" y2="127.7" gradientUnits="userSpaceOnUse">
<stop offset="0.2" stop-color="#7C9B93"/>
<stop offset="0.5" stop-color="#50706B"/>
</linearGradient>
<linearGradient id="paint3_linear_65_4" x1="195.177" y1="48.0509" x2="185.406" y2="122.76" gradientUnits="userSpaceOnUse">
<stop offset="0.2" stop-color="#7C9B93"/>
<stop offset="0.5" stop-color="#50706B"/>
</linearGradient>
<linearGradient id="paint4_linear_65_4" x1="240.733" y1="44.6874" x2="231.87" y2="112.459" gradientUnits="userSpaceOnUse">
<stop offset="0.2" stop-color="#7C9B93"/>
<stop offset="0.5" stop-color="#50706B"/>
</linearGradient>
<linearGradient id="paint5_linear_65_4" x1="291.086" y1="41.0521" x2="275.682" y2="158.83" gradientUnits="userSpaceOnUse">
<stop offset="0.2" stop-color="#7C9B93"/>
<stop offset="0.5" stop-color="#50706B"/>
</linearGradient>
<linearGradient id="paint6_linear_65_4" x1="54.6628" y1="25.2732" x2="41.1775" y2="128.381" gradientUnits="userSpaceOnUse">
<stop offset="0.2" stop-color="#7C9B93"/>
<stop offset="0.5" stop-color="#50706B"/>
</linearGradient>
</defs>
</svg>
