<svg width="729" height="624" viewBox="0 0 729 624" fill="none" xmlns="http://www.w3.org/2000/svg">
<circle cx="391" cy="311.873" r="311.873" fill="#F2F1E7" fill-opacity="0.9"/>
<path d="M115.055 457.58L74.6366 465.566C66.6527 465.067 187.411 552.891 305.673 543.41C454.791 531.455 527.388 496.195 537.869 490.732C538.798 490.248 539.626 489.697 540.421 489.014C552.954 478.241 541.27 473.463 534.213 476.045C437.409 511.474 360.064 525.945 272.24 525.945C239.306 525.945 131.689 496.502 115.055 457.58Z" fill="#254748"/>
<path d="M115.055 457.58L74.6366 465.566C66.6527 465.067 187.411 552.891 305.673 543.41C454.791 531.455 527.388 496.195 537.869 490.732C538.798 490.248 539.626 489.697 540.421 489.014C552.954 478.241 541.27 473.463 534.213 476.045C437.409 511.474 360.064 525.945 272.24 525.945C239.306 525.945 131.689 496.502 115.055 457.58Z" fill="black" fill-opacity="0.2"/>
<path d="M115.055 457.58L74.6366 465.566C66.6527 465.067 187.411 552.891 305.673 543.41C454.791 531.455 527.388 496.195 537.869 490.732C538.798 490.248 539.626 489.697 540.421 489.014C552.954 478.241 541.27 473.463 534.213 476.045C437.409 511.474 360.064 525.945 272.24 525.945C239.306 525.945 131.689 496.502 115.055 457.58Z" fill="black" fill-opacity="0.2"/>
<path d="M115.055 457.58L74.6366 465.566C66.6527 465.067 187.411 552.891 305.673 543.41C454.791 531.455 527.388 496.195 537.869 490.732C538.798 490.248 539.626 489.697 540.421 489.014C552.954 478.241 541.27 473.463 534.213 476.045C437.409 511.474 360.064 525.945 272.24 525.945C239.306 525.945 131.689 496.502 115.055 457.58Z" stroke="white" stroke-width="8.98195"/>
<path d="M185.369 341.321C165.063 341.833 149.811 383.891 179.822 388.21C206.101 388.955 214.933 340.577 185.369 341.321Z" fill="#D6C4CC" stroke="white" stroke-width="9.97995"/>
<g filter="url(#filter0_d_81_2)">
<path d="M190.884 285.407C123.02 287.121 72.0473 428.036 172.346 442.507C260.169 445.002 289.685 282.912 190.884 285.407Z" fill="url(#paint0_linear_81_2)" stroke="white" stroke-width="9.97995"/>
<path d="M290.472 281.572L255.043 291.052V374.385C255.043 453.726 378.296 440.253 378.296 374.385V258.119L342.867 268.099L339.374 374.385C335.382 400.333 292.967 397.339 290.472 380.373V281.572Z" fill="url(#paint1_linear_81_2)" stroke="white" stroke-width="9.97995"/>
<path d="M388.152 403.46V255.258L462.503 232.803V270.228C439.749 274.22 428.405 288.524 425.577 295.177V393.48L388.152 403.46Z" fill="url(#paint2_linear_81_2)" stroke="white" stroke-width="9.97995"/>
<path d="M555.066 301.486C481.214 377.83 474.727 213.66 555.066 258.573C576.024 270.289 591.99 230.294 576.024 223.141C408.21 147.952 432.706 479.239 590.995 325.411C591.607 324.817 592.072 323.964 592.183 323.119C596.095 293.404 566.009 290.174 555.066 301.486Z" fill="url(#paint3_linear_81_2)" stroke="white" stroke-width="9.97995"/>
<path d="M630.801 213.863L589.601 226.545L595.871 322.644C595.871 345.598 629.371 357.075 682.697 345.598C657.747 440.907 590.715 426.768 562.938 398.492C526.578 480.328 712.138 491.804 719.124 342.105V188.913L682.697 197.396V293.703C682.697 313.163 630.801 313.662 633.296 293.703L630.801 213.863Z" fill="url(#paint4_linear_81_2)" stroke="white" stroke-width="9.97995"/>
<path d="M9 318.728V280.805L197.122 222.921V263.34L112.791 286.294V448.967L74.8676 458.448V298.768L9 318.728Z" fill="url(#paint5_linear_81_2)" stroke="white" stroke-width="9.97995"/>
</g>
<path d="M544.225 388.161C479.101 415.119 414.49 438.602 293.791 477.567C273.512 484.114 273.899 486.984 294.77 482.685C367.358 467.735 472.303 444.251 558.164 397.187L557.97 395.9C556.998 389.47 550.234 385.674 544.225 388.161Z" fill="#254748"/>
<path d="M544.225 388.161C479.101 415.119 414.49 438.602 293.791 477.567C273.512 484.114 273.899 486.984 294.77 482.685C367.358 467.735 472.303 444.251 558.164 397.187L557.97 395.9C556.998 389.47 550.234 385.674 544.225 388.161Z" fill="black" fill-opacity="0.2"/>
<path d="M544.225 388.161C479.101 415.119 414.49 438.602 293.791 477.567C273.512 484.114 273.899 486.984 294.77 482.685C367.358 467.735 472.303 444.251 558.164 397.187L557.97 395.9C556.998 389.47 550.234 385.674 544.225 388.161Z" fill="black" fill-opacity="0.2"/>
<path d="M544.225 388.161C479.101 415.119 414.49 438.602 293.791 477.567C273.512 484.114 273.899 486.984 294.77 482.685C367.358 467.735 472.303 444.251 558.164 397.187L557.97 395.9C556.998 389.47 550.234 385.674 544.225 388.161Z" stroke="white" stroke-width="8.98195"/>
<path d="M203.001 368.846C200.12 381.834 188.88 389.737 178.436 387.42C167.993 385.104 161.148 373.19 164.028 360.202C166.909 347.214 178.15 339.311 188.593 341.627C199.036 343.944 205.882 355.858 203.001 368.846Z" fill="#D6C4CC" stroke="white" stroke-width="4.98997"/>
<g filter="url(#filter1_d_81_2)">
<path d="M363.259 75.926L379.288 87.3603C384.679 91.206 391.623 92.1257 397.837 89.8363C409.052 85.7045 423.059 80.5966 438.218 75.1513C425.567 66.8885 401.812 50.1724 399.607 44.1312C399.279 43.2315 399.683 42.2463 400.283 41.4998C404.526 36.2207 424.149 34.1048 476.585 61.5471C500.013 53.3614 523.046 45.5684 540.482 40.1937C541.665 39.829 542.882 39.5705 544.116 39.4683C571.821 37.172 595.93 52.4334 559.569 66.7267L514.762 86.3704C512.616 87.3109 510.529 88.4617 509.221 90.4042C498.879 105.752 460.502 183.449 450.915 181.437C445.797 180.363 447.266 173.205 461.546 118.402C463.407 111.258 462.377 108.073 455.358 110.358C435.514 116.817 392.285 129.167 375.04 126.928C371.52 126.471 369.028 123.748 367.427 120.581C361.064 107.997 353.142 89.9065 351.931 79.0248C351.218 72.6074 358.002 72.1762 363.259 75.926Z" fill="#50706B"/>
<path d="M438.218 75.1513C423.059 80.5966 409.052 85.7045 397.837 89.8363C391.623 92.1257 384.679 91.206 379.288 87.3603L363.259 75.926C358.002 72.1762 351.218 72.6074 351.931 79.0248C353.142 89.9065 361.064 107.997 367.427 120.581C369.028 123.748 371.52 126.471 375.04 126.928C392.285 129.167 435.514 116.817 455.358 110.358C462.377 108.073 463.407 111.258 461.546 118.402C447.266 173.205 445.797 180.363 450.915 181.437C460.502 183.449 498.879 105.752 509.221 90.4042C510.529 88.4617 512.616 87.3109 514.762 86.3704L559.569 66.7267C595.93 52.4334 571.821 37.172 544.116 39.4683C542.882 39.5705 541.665 39.829 540.482 40.1937C523.046 45.5684 500.013 53.3614 476.585 61.5471M438.218 75.1513C425.567 66.8885 401.812 50.1724 399.607 44.1312C399.279 43.2315 399.683 42.2463 400.283 41.4998C404.526 36.2207 424.149 34.1048 476.585 61.5471M438.218 75.1513C450.54 70.7251 463.623 66.076 476.585 61.5471" stroke="white" stroke-width="4.98997"/>
</g>
<path d="M334.635 113.46C330.077 116.441 331.167 115.897 334.719 113.653C339.319 110.746 339.19 110.482 334.635 113.46Z" stroke="white" stroke-width="4.98997"/>
<path d="M314.674 127.434C310.116 130.415 311.206 129.87 314.758 127.626C319.358 124.719 319.229 124.455 314.674 127.434Z" stroke="white" stroke-width="4.98997"/>
<path d="M294.715 138.412C290.157 141.393 291.247 140.849 294.799 138.604C299.399 135.697 299.27 135.434 294.715 138.412Z" stroke="white" stroke-width="4.98997"/>
<path d="M542.539 542.623C537.234 543.855 538.445 543.718 542.551 542.833C547.87 541.685 547.84 541.393 542.539 542.623Z" stroke="white" stroke-width="4.98997"/>
<path d="M274.756 149.389C270.198 152.37 271.288 151.826 274.84 149.581C279.44 146.675 279.311 146.411 274.756 149.389Z" stroke="white" stroke-width="4.98997"/>
<path d="M255.793 160.366C251.234 163.347 252.325 162.802 255.876 160.558C260.476 157.651 260.347 157.387 255.793 160.366Z" stroke="white" stroke-width="4.98997"/>
<path d="M235.834 171.345C231.275 174.326 232.366 173.781 235.917 171.537C240.517 168.63 240.388 168.366 235.834 171.345Z" stroke="white" stroke-width="4.98997"/>
<path d="M217.557 182.17C213.452 185.749 214.457 185.06 217.666 182.349C221.823 178.838 221.659 178.594 217.557 182.17Z" stroke="white" stroke-width="4.98997"/>
<path d="M198.87 193.115C194.816 196.752 195.812 196.049 198.981 193.292C203.088 189.722 202.92 189.481 198.87 193.115Z" stroke="white" stroke-width="4.98997"/>
<path d="M487.299 535.483L422.979 552.718C417.101 554.293 418.583 559.826 418.583 559.826L422.521 574.522C428.264 575.207 430.902 582.284 425.857 586.971L429.285 599.766C431.092 606.51 431.092 606.51 436.971 604.934L501.29 587.7C502.889 584.677 505.176 584.682 507.169 586.125L526.88 580.843C531.548 579.592 531.548 579.592 529.788 573.022L526.313 560.054C520.904 558.539 517.633 552.558 522.977 547.605L518.459 530.744C517.848 528.463 515.708 527.871 513.428 528.482L493.178 533.908C492.283 537.483 488.846 537.107 487.299 535.483Z" fill="url(#paint6_linear_81_2)" stroke="white" stroke-width="1.06864"/>
<path d="M421.801 567.413C419.659 563.589 418.139 555.654 429.194 554.505L487.657 538.476C488.828 540.311 491.722 542.537 493.927 536.757L510.873 532.11C512.442 531.631 516.027 531.638 517.815 535.5L519.202 540.56L421.801 567.413Z" fill="white"/>
<rect x="423.306" y="562.234" width="22.9122" height="1.79002" rx="0.895008" transform="rotate(-15 423.306 562.234)" fill="#719089"/>
<rect x="435.382" y="598.592" width="22.9122" height="1.79002" rx="0.895008" transform="rotate(-15 435.382 598.592)" fill="white"/>
<rect width="22.9122" height="1.79002" rx="0.895008" transform="matrix(-0.965926 0.258819 0.258819 0.965926 495.578 582.67)" fill="white"/>
<rect width="13.4124" height="1.54758" rx="0.773791" transform="matrix(-0.965926 0.258819 0.258819 0.965926 512.643 547.527)" fill="white"/>
<rect width="13.4124" height="1.54758" rx="0.773791" transform="matrix(-0.965926 0.258819 0.258819 0.965926 514.111 553.008)" fill="white"/>
<rect width="13.4124" height="1.54758" rx="0.773791" transform="matrix(-0.965926 0.258819 0.258819 0.965926 516.915 563.472)" fill="white"/>
<rect width="13.4124" height="1.54758" rx="0.773791" transform="matrix(-0.965926 0.258819 0.258819 0.965926 515.58 558.489)" fill="white"/>
<rect x="491.724" y="537.823" width="5.52954" height="1.79002" rx="0.895008" transform="rotate(75 491.724 537.823)" fill="#50706B"/>
<rect x="493.701" y="545.659" width="5.52954" height="1.79002" rx="0.895008" transform="rotate(75 493.701 545.659)" fill="#50706B"/>
<rect x="495.837" y="553.632" width="5.52954" height="1.79002" rx="0.895008" transform="rotate(75 495.837 553.632)" fill="#50706B"/>
<rect x="497.974" y="561.604" width="5.52954" height="1.79002" rx="0.895008" transform="rotate(75 497.974 561.604)" fill="#50706B"/>
<rect x="500.11" y="569.577" width="5.52954" height="1.79002" rx="0.895008" transform="rotate(75 500.11 569.577)" fill="#50706B"/>
<rect x="502.246" y="577.549" width="5.52954" height="1.79002" rx="0.895008" transform="rotate(75 502.246 577.549)" fill="#50706B"/>
<rect x="422.475" y="559.124" width="9.66609" height="1.79002" rx="0.895008" transform="rotate(-15 422.475 559.124)" fill="#6E8D86"/>
<rect x="434.547" y="595.481" width="9.66609" height="1.79002" rx="0.895008" transform="rotate(-15 434.547 595.481)" fill="white"/>
<rect width="9.66609" height="1.79002" rx="0.895008" transform="matrix(-0.965926 0.258819 0.258819 0.965926 494.745 579.559)" fill="white"/>
<path d="M464.747 589.199C456.057 586.982 448.005 572.323 459.407 569.268C471.806 565.946 471.63 582.816 464.747 589.199Z" fill="white" stroke="#50706B" stroke-width="2"/>
<circle cx="461.436" cy="575.667" r="3.09516" transform="rotate(-15 461.436 575.667)" fill="#7C9B93"/>
<defs>
<filter id="filter0_d_81_2" x="0.0182755" y="182.627" width="728.087" height="290.195" filterUnits="userSpaceOnUse" color-interpolation-filters="sRGB">
<feFlood flood-opacity="0" result="BackgroundImageFix"/>
<feColorMatrix in="SourceAlpha" type="matrix" values="0 0 0 0 0 0 0 0 0 0 0 0 0 0 0 0 0 0 127 0" result="hardAlpha"/>
<feOffset dy="3.99198"/>
<feGaussianBlur stdDeviation="1.99599"/>
<feComposite in2="hardAlpha" operator="out"/>
<feColorMatrix type="matrix" values="0 0 0 0 0 0 0 0 0 0 0 0 0 0 0 0 0 0 0.35 0"/>
<feBlend mode="normal" in2="BackgroundImageFix" result="effect1_dropShadow_81_2"/>
<feBlend mode="normal" in="SourceGraphic" in2="effect1_dropShadow_81_2" result="shape"/>
</filter>
<filter id="filter1_d_81_2" x="345.393" y="35.7544" width="239.077" height="156.201" filterUnits="userSpaceOnUse" color-interpolation-filters="sRGB">
<feFlood flood-opacity="0" result="BackgroundImageFix"/>
<feColorMatrix in="SourceAlpha" type="matrix" values="0 0 0 0 0 0 0 0 0 0 0 0 0 0 0 0 0 0 127 0" result="hardAlpha"/>
<feOffset dy="3.99198"/>
<feGaussianBlur stdDeviation="1.99599"/>
<feComposite in2="hardAlpha" operator="out"/>
<feColorMatrix type="matrix" values="0 0 0 0 0 0 0 0 0 0 0 0 0 0 0 0 0 0 0.35 0"/>
<feBlend mode="normal" in2="BackgroundImageFix" result="effect1_dropShadow_81_2"/>
<feBlend mode="normal" in="SourceGraphic" in2="effect1_dropShadow_81_2" result="shape"/>
</filter>
<linearGradient id="paint0_linear_81_2" x1="184.367" y1="285.379" x2="184.367" y2="442.535" gradientUnits="userSpaceOnUse">
<stop offset="0.2" stop-color="#7C9B93"/>
<stop offset="0.5" stop-color="#50706B"/>
</linearGradient>
<linearGradient id="paint1_linear_81_2" x1="316.67" y1="258.119" x2="316.67" y2="428.955" gradientUnits="userSpaceOnUse">
<stop offset="0.2" stop-color="#7C9B93"/>
<stop offset="0.5" stop-color="#50706B"/>
</linearGradient>
<linearGradient id="paint2_linear_81_2" x1="425.328" y1="232.803" x2="425.328" y2="403.46" gradientUnits="userSpaceOnUse">
<stop offset="0.2" stop-color="#7C9B93"/>
<stop offset="0.5" stop-color="#50706B"/>
</linearGradient>
<linearGradient id="paint3_linear_81_2" x1="526.653" y1="211.868" x2="526.653" y2="366.677" gradientUnits="userSpaceOnUse">
<stop offset="0.2" stop-color="#7C9B93"/>
<stop offset="0.5" stop-color="#50706B"/>
</linearGradient>
<linearGradient id="paint4_linear_81_2" x1="638.672" y1="188.913" x2="638.672" y2="457.951" gradientUnits="userSpaceOnUse">
<stop offset="0.2" stop-color="#7C9B93"/>
<stop offset="0.5" stop-color="#50706B"/>
</linearGradient>
<linearGradient id="paint5_linear_81_2" x1="103.061" y1="222.921" x2="103.061" y2="458.448" gradientUnits="userSpaceOnUse">
<stop offset="0.2" stop-color="#7C9B93"/>
<stop offset="0.5" stop-color="#50706B"/>
</linearGradient>
<linearGradient id="paint6_linear_81_2" x1="467.228" y1="540.458" x2="481.32" y2="593.051" gradientUnits="userSpaceOnUse">
<stop offset="0.551667" stop-color="#7C9B93"/>
<stop offset="1" stop-color="#50706B"/>
</linearGradient>
</defs>
</svg>
